<?xml version="1.0" encoding="utf-8"?>
<!-- Generator: Adobe Illustrator 16.0.0, SVG Export Plug-In . SVG Version: 6.00 Build 0)  -->
<!DOCTYPE svg PUBLIC "-//W3C//DTD SVG 1.0//EN" "http://www.w3.org/TR/2001/REC-SVG-20010904/DTD/svg10.dtd">
<svg version="1.0" id="Layer_1" xmlns="http://www.w3.org/2000/svg" xmlns:xlink="http://www.w3.org/1999/xlink" x="0px" y="0px"
	 width="215.458px" height="65px" viewBox="0 0 215.458 65" enable-background="new 0 0 215.458 65" xml:space="preserve">
<defs>
	<filter id="Adobe_OpacityMaskFilter" filterUnits="userSpaceOnUse" x="-115.12" y="-179.573" width="391.906" height="71.142">
		<feColorMatrix  type="matrix" values="1 0 0 0 0  0 1 0 0 0  0 0 1 0 0  0 0 0 1 0"/>
	</filter>
</defs>
<mask maskUnits="userSpaceOnUse" x="-115.12" y="-179.573" width="391.906" height="71.142" id="SVGID_1_">
	<g filter="url(#Adobe_OpacityMaskFilter)">
		
			<rect x="0.667" y="-240.835" fill="#FFFFFF" stroke="#000000" stroke-width="0.25" stroke-miterlimit="10" width="214.667" height="192"/>
	</g>
</mask>
<g mask="url(#SVGID_1_)">
	<polyline fill="none" stroke="#000000" stroke-width="25" stroke-miterlimit="10" points="-107.667,-164.002 -53.81,-124.002 
		0.043,-164.002 53.897,-124.002 107.754,-164.002 161.609,-124.002 215.471,-164.002 269.333,-124.002 	"/>
</g>
<defs>
	<filter id="Adobe_OpacityMaskFilter_1_" filterUnits="userSpaceOnUse" x="-107.667" y="0" width="376.998" height="65">
		<feColorMatrix  type="matrix" values="1 0 0 0 0  0 1 0 0 0  0 0 1 0 0  0 0 0 1 0"/>
	</filter>
</defs>
<mask maskUnits="userSpaceOnUse" x="-107.667" y="0" width="376.998" height="65" id="SVGID_2_">
	<g filter="url(#Adobe_OpacityMaskFilter_1_)">
		
			<rect x="-9.104" y="-64.333" fill="#FFFFFF" stroke="#000000" stroke-width="0.25" stroke-miterlimit="10" width="232.21" height="192"/>
	</g>
</mask>
<g mask="url(#SVGID_2_)">
	<path fill="none" stroke="#FFFFFF" stroke-width="25" stroke-miterlimit="10" d="M-107.667,12.5c26.928,0,26.928,40,53.856,40
		c26.927,0,26.927-40,53.853-40c26.927,0,26.927,40,53.854,40c26.928,0,26.928-40,53.856-40c26.927,0,26.927,40,53.855,40
		c26.931,0,26.931-40,53.862-40c26.931,0,26.932,40,53.861,40"/>
</g>
</svg>
