<?xml version="1.0" encoding="utf-8"?>
<!-- Generator: Adobe Illustrator 16.0.0, SVG Export Plug-In . SVG Version: 6.00 Build 0)  -->
<!DOCTYPE svg PUBLIC "-//W3C//DTD SVG 1.0//EN" "http://www.w3.org/TR/2001/REC-SVG-20010904/DTD/svg10.dtd">
<svg version="1.0" id="Layer_1" xmlns="http://www.w3.org/2000/svg" xmlns:xlink="http://www.w3.org/1999/xlink" x="0px" y="0px"
	 width="267.422px" height="318.588px" viewBox="156.225 138.177 267.422 318.588"
	 enable-background="new 156.225 138.177 267.422 318.588" xml:space="preserve">
<g id="Layer_2">
</g>
<g id="Layer_1_1_">
	<path fill="#FFFFFF" d="M423.646,270.44l-48.07,117.123l-3.653-98.328 M371.923,289.235l46.637-151.058l-203.208,104.03
		l98.875,1.01"/>
	<g>
		<path fill="#FFFFFF" d="M270.609,227.994c-63.172,0-114.385,51.213-114.385,114.387s51.211,114.385,114.385,114.385
			c63.175,0,114.387-51.211,114.387-114.385S333.783,227.994,270.609,227.994z M271.252,429.531
			c-48.792,0-88.346-39.145-88.346-87.432c0-48.288,39.554-87.432,88.346-87.432s88.346,39.144,88.346,87.432
			C359.599,390.387,320.045,429.531,271.252,429.531z"/>
		<ellipse display="none" fill="#FFFFFF" cx="271.252" cy="342.1" rx="88.346" ry="87.431"/>
	</g>
	<g>
		<circle fill="#FFFFFF" cx="270.609" cy="342.381" r="43.527"/>
	</g>
	<g>
		<circle fill="#FFFFFF" cx="269.239" cy="429.532" r="18.667"/>
		<circle fill="#FFFFFF" cx="331.328" cy="403.17" r="18.667"/>
		<circle fill="#FFFFFF" cx="359.599" cy="343.782" r="18.667"/>
		<circle fill="#FFFFFF" cx="334.182" cy="281.87" r="18.667"/>
		<circle fill="#FFFFFF" cx="273.309" cy="255.573" r="18.667"/>
		<circle fill="#FFFFFF" cx="209.251" cy="279.904" r="18.667"/>
		<circle fill="#FFFFFF" cx="182.953" cy="341.002" r="18.667"/>
		<circle fill="#FFFFFF" cx="208.979" cy="403.247" r="18.667"/>
	</g>
</g>
</svg>
